<svg width="38" height="7" viewBox="0 0 38 7" fill="none" xmlns="http://www.w3.org/2000/svg">
<path d="M0.817438 6V0.352H2.07344V6H0.817438ZM1.78544 6V4.896H4.57744V6H1.78544ZM5.30181 6V0.352H6.55781V6H5.30181ZM6.26981 6V4.896H9.06181V6H6.26981ZM9.78619 6V0.352H11.0422V6H9.78619ZM10.7462 6V4.912H13.8422V6H10.7462ZM10.7462 3.64V2.592H13.5622V3.64H10.7462ZM10.7462 1.432V0.352H13.8022V1.432H10.7462ZM17.2705 6.088C16.8598 6.088 16.4732 6.01333 16.1105 5.864C15.7532 5.71467 15.4412 5.50933 15.1745 5.248C14.9078 4.98133 14.6972 4.672 14.5425 4.32C14.3932 3.96267 14.3185 3.57867 14.3185 3.168C14.3185 2.75733 14.3958 2.376 14.5505 2.024C14.7052 1.672 14.9185 1.36533 15.1905 1.104C15.4678 0.837333 15.7905 0.632 16.1585 0.488C16.5265 0.338667 16.9212 0.264 17.3425 0.264C17.8278 0.264 18.2678 0.352 18.6625 0.528C19.0625 0.704 19.3932 0.946666 19.6545 1.256L18.7985 2.112C18.6172 1.87733 18.4038 1.70133 18.1585 1.584C17.9132 1.46667 17.6358 1.408 17.3265 1.408C16.9958 1.408 16.6998 1.48267 16.4385 1.632C16.1772 1.776 15.9718 1.98133 15.8225 2.248C15.6785 2.50933 15.6065 2.816 15.6065 3.168C15.6065 3.52 15.6785 3.82933 15.8225 4.096C15.9665 4.36267 16.1638 4.57067 16.4145 4.72C16.6652 4.86933 16.9532 4.944 17.2785 4.944C17.6092 4.944 17.8892 4.88267 18.1185 4.76C18.3532 4.632 18.5318 4.45067 18.6545 4.216C18.7825 3.976 18.8465 3.68533 18.8465 3.344L19.6785 3.904L17.1585 3.864V2.8H20.1265V2.984C20.1265 3.66133 20.0038 4.232 19.7585 4.696C19.5185 5.15467 19.1825 5.50133 18.7505 5.736C18.3238 5.97067 17.8305 6.088 17.2705 6.088ZM20.2216 6L22.4616 0.352H23.5976L25.8136 6H24.4856L22.7896 1.312H23.2456L21.5256 6H20.2216ZM21.4936 4.976V3.952H24.5736V4.976H21.4936ZM27.2592 6V4.896H28.6592C29.0005 4.896 29.2992 4.82933 29.5552 4.696C29.8112 4.55733 30.0085 4.35733 30.1472 4.096C30.2859 3.83467 30.3552 3.52533 30.3552 3.168C30.3552 2.81067 30.2832 2.504 30.1392 2.248C30.0005 1.992 29.8032 1.79467 29.5472 1.656C29.2965 1.51733 29.0005 1.448 28.6592 1.448H27.2192V0.352H28.6752C29.1019 0.352 29.4939 0.421333 29.8512 0.56C30.2139 0.693333 30.5285 0.888 30.7952 1.144C31.0672 1.39467 31.2752 1.69333 31.4192 2.04C31.5685 2.38133 31.6432 2.76 31.6432 3.176C31.6432 3.58667 31.5685 3.96533 31.4192 4.312C31.2752 4.65867 31.0699 4.95733 30.8032 5.208C30.5365 5.45867 30.2219 5.65333 29.8592 5.792C29.5019 5.93067 29.1125 6 28.6912 6H27.2592ZM26.4112 6V0.352H27.6672V6H26.4112ZM32.0184 6L34.2584 0.352H35.3944L37.6104 6H36.2824L34.5864 1.312H35.0424L33.3224 6H32.0184ZM33.2904 4.976V3.952H36.3704V4.976H33.2904Z" fill="white"/>
</svg>
