<svg width="30" height="7" viewBox="0 0 30 7" fill="none" xmlns="http://www.w3.org/2000/svg">
<path d="M2.76344 6.088C2.29944 6.088 1.89944 6.01333 1.56344 5.864C1.23277 5.70933 0.928771 5.47733 0.651438 5.168L1.46744 4.36C1.64877 4.568 1.84877 4.73067 2.06744 4.848C2.29144 4.96 2.5501 5.016 2.84344 5.016C3.1101 5.016 3.31544 4.968 3.45944 4.872C3.60877 4.776 3.68344 4.64267 3.68344 4.472C3.68344 4.31733 3.63544 4.192 3.53944 4.096C3.44344 4 3.31544 3.91733 3.15544 3.848C3.00077 3.77867 2.82744 3.712 2.63544 3.648C2.44877 3.584 2.2621 3.512 2.07544 3.432C1.88877 3.34667 1.71544 3.24267 1.55544 3.12C1.40077 2.992 1.27544 2.83467 1.17944 2.648C1.08344 2.456 1.03544 2.216 1.03544 1.928C1.03544 1.58133 1.1181 1.28267 1.28344 1.032C1.4541 0.781333 1.68877 0.592 1.98744 0.464C2.2861 0.330667 2.6301 0.264 3.01944 0.264C3.4141 0.264 3.7741 0.333333 4.09944 0.472C4.4301 0.610666 4.7021 0.8 4.91544 1.04L4.09944 1.848C3.92877 1.672 3.75544 1.54133 3.57944 1.456C3.40877 1.37067 3.2141 1.328 2.99544 1.328C2.77677 1.328 2.60344 1.37067 2.47544 1.456C2.34744 1.536 2.28344 1.65333 2.28344 1.808C2.28344 1.952 2.33144 2.06933 2.42744 2.16C2.52344 2.24533 2.64877 2.32 2.80344 2.384C2.96344 2.448 3.13677 2.512 3.32344 2.576C3.51544 2.64 3.70477 2.71467 3.89144 2.8C4.0781 2.88533 4.24877 2.99467 4.40344 3.128C4.56344 3.256 4.69144 3.42133 4.78744 3.624C4.88344 3.82133 4.93144 4.06667 4.93144 4.36C4.93144 4.89867 4.73944 5.32267 4.35544 5.632C3.97144 5.936 3.44077 6.088 2.76344 6.088ZM5.14344 6L7.38344 0.352H8.51944L10.7354 6H9.40744L7.71144 1.312H8.16744L6.44744 6H5.14344ZM6.41544 4.976V3.952H9.49544V4.976H6.41544ZM11.3331 6V0.352H12.5891V6H11.3331ZM12.3011 6V4.896H15.0931V6H12.3011ZM15.8174 6V0.352H17.0734V6H15.8174ZM19.0092 6V4.896H20.4092C20.7505 4.896 21.0492 4.82933 21.3052 4.696C21.5612 4.55733 21.7585 4.35733 21.8972 4.096C22.0359 3.83467 22.1052 3.52533 22.1052 3.168C22.1052 2.81067 22.0332 2.504 21.8892 2.248C21.7505 1.992 21.5532 1.79467 21.2972 1.656C21.0465 1.51733 20.7505 1.448 20.4092 1.448H18.9692V0.352H20.4252C20.8519 0.352 21.2439 0.421333 21.6012 0.56C21.9639 0.693333 22.2785 0.888 22.5452 1.144C22.8172 1.39467 23.0252 1.69333 23.1692 2.04C23.3185 2.38133 23.3932 2.76 23.3932 3.176C23.3932 3.58667 23.3185 3.96533 23.1692 4.312C23.0252 4.65867 22.8199 4.95733 22.5532 5.208C22.2865 5.45867 21.9719 5.65333 21.6092 5.792C21.2519 5.93067 20.8625 6 20.4412 6H19.0092ZM18.1612 6V0.352H19.4172V6H18.1612ZM23.7684 6L26.0084 0.352H27.1444L29.3604 6H28.0324L26.3364 1.312H26.7924L25.0724 6H23.7684ZM25.0404 4.976V3.952H28.1204V4.976H25.0404Z" fill="white"/>
</svg>
