<svg width="34" height="7" viewBox="0 0 34 7" fill="none" xmlns="http://www.w3.org/2000/svg">
<path d="M2.78688 6.088C2.32288 6.088 1.92288 6.01333 1.58688 5.864C1.25621 5.70933 0.952208 5.47733 0.674875 5.168L1.49088 4.36C1.67221 4.568 1.87221 4.73067 2.09088 4.848C2.31488 4.96 2.57354 5.016 2.86688 5.016C3.13354 5.016 3.33888 4.968 3.48288 4.872C3.63221 4.776 3.70688 4.64267 3.70688 4.472C3.70688 4.31733 3.65888 4.192 3.56288 4.096C3.46688 4 3.33888 3.91733 3.17888 3.848C3.02421 3.77867 2.85088 3.712 2.65887 3.648C2.47221 3.584 2.28554 3.512 2.09888 3.432C1.91221 3.34667 1.73888 3.24267 1.57888 3.12C1.42421 2.992 1.29888 2.83467 1.20288 2.648C1.10688 2.456 1.05888 2.216 1.05888 1.928C1.05888 1.58133 1.14154 1.28267 1.30688 1.032C1.47754 0.781333 1.71221 0.592 2.01088 0.464C2.30954 0.330667 2.65354 0.264 3.04288 0.264C3.43754 0.264 3.79754 0.333333 4.12288 0.472C4.45354 0.610666 4.72554 0.8 4.93888 1.04L4.12288 1.848C3.95221 1.672 3.77888 1.54133 3.60288 1.456C3.43221 1.37067 3.23754 1.328 3.01888 1.328C2.80021 1.328 2.62688 1.37067 2.49888 1.456C2.37088 1.536 2.30688 1.65333 2.30688 1.808C2.30688 1.952 2.35488 2.06933 2.45088 2.16C2.54688 2.24533 2.67221 2.32 2.82688 2.384C2.98688 2.448 3.16021 2.512 3.34688 2.576C3.53888 2.64 3.72821 2.71467 3.91488 2.8C4.10154 2.88533 4.27221 2.99467 4.42688 3.128C4.58688 3.256 4.71488 3.42133 4.81088 3.624C4.90688 3.82133 4.95487 4.06667 4.95487 4.36C4.95487 4.89867 4.76288 5.32267 4.37888 5.632C3.99488 5.936 3.46421 6.088 2.78688 6.088ZM5.75494 6V0.352H7.01094V6H5.75494ZM6.71494 6V4.912H9.81094V6H6.71494ZM6.71494 3.64V2.592H9.53094V3.64H6.71494ZM6.71494 1.432V0.352H9.77094V1.432H6.71494ZM13.2393 6.088C12.8286 6.088 12.4419 6.01333 12.0793 5.864C11.7219 5.71467 11.4099 5.50933 11.1433 5.248C10.8766 4.98133 10.6659 4.672 10.5113 4.32C10.3619 3.96267 10.2873 3.57867 10.2873 3.168C10.2873 2.75733 10.3646 2.376 10.5193 2.024C10.6739 1.672 10.8873 1.36533 11.1593 1.104C11.4366 0.837333 11.7593 0.632 12.1273 0.488C12.4953 0.338667 12.8899 0.264 13.3113 0.264C13.7966 0.264 14.2366 0.352 14.6313 0.528C15.0313 0.704 15.3619 0.946666 15.6233 1.256L14.7673 2.112C14.5859 1.87733 14.3726 1.70133 14.1273 1.584C13.8819 1.46667 13.6046 1.408 13.2953 1.408C12.9646 1.408 12.6686 1.48267 12.4073 1.632C12.1459 1.776 11.9406 1.98133 11.7913 2.248C11.6473 2.50933 11.5753 2.816 11.5753 3.168C11.5753 3.52 11.6473 3.82933 11.7913 4.096C11.9353 4.36267 12.1326 4.57067 12.3832 4.72C12.6339 4.86933 12.9219 4.944 13.2473 4.944C13.5779 4.944 13.8579 4.88267 14.0873 4.76C14.3219 4.632 14.5006 4.45067 14.6233 4.216C14.7513 3.976 14.8153 3.68533 14.8153 3.344L15.6473 3.904L13.1273 3.864V2.8H16.0953V2.984C16.0953 3.66133 15.9726 4.232 15.7273 4.696C15.4873 5.15467 15.1513 5.50133 14.7193 5.736C14.2926 5.97067 13.7993 6.088 13.2393 6.088ZM19.1285 6.088C18.6645 6.088 18.2538 5.98933 17.8965 5.792C17.5445 5.59467 17.2672 5.32267 17.0645 4.976C16.8672 4.624 16.7685 4.224 16.7685 3.776V0.352H18.0325V3.848C18.0325 4.072 18.0805 4.26667 18.1765 4.432C18.2725 4.59733 18.4032 4.72533 18.5685 4.816C18.7392 4.90133 18.9258 4.944 19.1285 4.944C19.3418 4.944 19.5285 4.90133 19.6885 4.816C19.8485 4.72533 19.9738 4.6 20.0645 4.44C20.1605 4.27467 20.2085 4.08 20.2085 3.856V0.352H21.4725V3.784C21.4725 4.232 21.3738 4.62933 21.1765 4.976C20.9792 5.32267 20.7045 5.59467 20.3525 5.792C20.0005 5.98933 19.5925 6.088 19.1285 6.088ZM23.4337 3.672V2.744H24.6257C24.8764 2.744 25.0684 2.68 25.2017 2.552C25.3404 2.424 25.4097 2.25067 25.4097 2.032C25.4097 1.82933 25.343 1.66133 25.2097 1.528C25.0764 1.39467 24.8844 1.328 24.6337 1.328H23.4337V0.352H24.7777C25.151 0.352 25.479 0.424 25.7617 0.568C26.0444 0.706666 26.2657 0.901333 26.4257 1.152C26.5857 1.40267 26.6657 1.69067 26.6657 2.016C26.6657 2.34667 26.5857 2.63733 26.4257 2.888C26.2657 3.13333 26.0417 3.32533 25.7537 3.464C25.4657 3.60267 25.127 3.672 24.7377 3.672H23.4337ZM22.4737 6V0.352H23.7297V6H22.4737ZM25.5457 6L23.7857 3.568L24.9377 3.256L27.0337 6H25.5457ZM30.2478 6.096C29.8211 6.096 29.4265 6.02133 29.0638 5.872C28.7065 5.72267 28.3918 5.51467 28.1198 5.248C27.8478 4.98133 27.6371 4.672 27.4878 4.32C27.3385 3.96267 27.2638 3.57867 27.2638 3.168C27.2638 2.752 27.3385 2.368 27.4878 2.016C27.6371 1.664 27.8451 1.35733 28.1118 1.096C28.3785 0.829333 28.6905 0.624 29.0478 0.48C29.4105 0.330666 29.8051 0.256 30.2318 0.256C30.6531 0.256 31.0425 0.330666 31.3998 0.48C31.7625 0.624 32.0771 0.829333 32.3438 1.096C32.6158 1.35733 32.8265 1.66667 32.9758 2.024C33.1251 2.376 33.1998 2.76 33.1998 3.176C33.1998 3.58667 33.1251 3.97067 32.9758 4.328C32.8265 4.68 32.6185 4.98933 32.3518 5.256C32.0851 5.51733 31.7705 5.72267 31.4078 5.872C31.0505 6.02133 30.6638 6.096 30.2478 6.096ZM30.2318 4.952C30.5678 4.952 30.8611 4.87733 31.1118 4.728C31.3678 4.57867 31.5651 4.37067 31.7038 4.104C31.8425 3.832 31.9118 3.52 31.9118 3.168C31.9118 2.90133 31.8718 2.66133 31.7918 2.448C31.7118 2.22933 31.5971 2.04267 31.4478 1.888C31.2985 1.728 31.1198 1.608 30.9118 1.528C30.7091 1.44267 30.4825 1.4 30.2318 1.4C29.8958 1.4 29.5998 1.47467 29.3438 1.624C29.0931 1.768 28.8985 1.97333 28.7598 2.24C28.6211 2.50133 28.5518 2.81067 28.5518 3.168C28.5518 3.43467 28.5918 3.67733 28.6718 3.896C28.7518 4.11467 28.8638 4.304 29.0078 4.464C29.1571 4.61867 29.3358 4.73867 29.5438 4.824C29.7518 4.90933 29.9811 4.952 30.2318 4.952Z" fill="white"/>
</svg>
