<svg width="540" height="536" viewBox="0 0 540 536" fill="none" xmlns="http://www.w3.org/2000/svg">
<g id="parqu&#195;&#169;s">
<g id="casillas-rojas">
<rect id="Rectangle 8" x="205.673" y="489.875" width="41.1345" height="11.9664" fill="#737474"/>
<rect id="Rectangle 9" x="249.799" y="489.875" width="41.1345" height="11.9664" fill="#FF7360"/>
<rect id="Rectangle 10" x="293.925" y="489.875" width="41.1345" height="11.9664" fill="#737474"/>
<rect id="Rectangle 8_2" x="205.673" y="430.043" width="41.1345" height="11.9664" fill="#737474"/>
<rect id="Rectangle 9_2" x="249.799" y="430.043" width="41.1345" height="11.9664" fill="#FF7360"/>
<rect id="Rectangle 10_2" x="293.925" y="430.043" width="41.1345" height="11.9664" fill="#FF7360"/>
<rect id="Rectangle 8_3" x="205.673" y="459.959" width="41.1345" height="11.9664" fill="#737474"/>
<rect id="Rectangle 9_3" x="249.799" y="459.959" width="41.1345" height="11.9664" fill="#FF7360"/>
<rect id="Rectangle 10_3" x="293.925" y="459.959" width="41.1345" height="11.9664" fill="#737474"/>
<rect id="Rectangle 8_4" x="205.673" y="400.127" width="41.1345" height="11.9664" fill="#737474"/>
<rect id="Rectangle 9_4" x="249.799" y="400.127" width="41.1345" height="11.9664" fill="#FF7360"/>
<rect id="Rectangle 10_4" x="293.925" y="400.127" width="41.1345" height="11.9664" fill="#737474"/>
<rect id="Rectangle 11" x="205.673" y="474.917" width="41.1345" height="11.9664" fill="#737474"/>
<rect id="Rectangle 12" x="249.799" y="474.917" width="41.1345" height="11.9664" fill="#FF7360"/>
<rect id="Rectangle 13" x="293.925" y="474.917" width="41.1345" height="11.9664" fill="#737474"/>
<rect id="Rectangle 11_2" x="205.673" y="415.085" width="41.1345" height="11.9664" fill="#737474"/>
<rect id="Rectangle 12_2" x="249.799" y="415.085" width="41.1345" height="11.9664" fill="#FF7360"/>
<rect id="Rectangle 13_2" x="293.925" y="415.085" width="41.1345" height="11.9664" fill="#737474"/>
<rect id="Rectangle 11_3" x="205.673" y="445.001" width="41.1345" height="11.9664" fill="#737474"/>
<rect id="Rectangle 12_3" x="249.799" y="445.001" width="41.1345" height="11.9664" fill="#FF7360"/>
<rect id="Rectangle 13_3" x="293.925" y="445.001" width="41.1345" height="11.9664" fill="#737474"/>
<rect id="Rectangle 11_4" x="205.673" y="385.169" width="41.1345" height="11.9664" fill="#737474"/>
<rect id="Rectangle 12_4" x="249.799" y="385.169" width="41.1345" height="11.9664" fill="#FF7360"/>
<rect id="Rectangle 13_4" x="293.925" y="385.169" width="41.1345" height="11.9664" fill="#737474"/>
</g>
<path id="meta-roja" d="M270.386 269.973L335.093 382.668H205.679L270.386 269.973Z" fill="#FF7360"/>
<g id="casillas-amarillas">
<rect id="Rectangle 8_5" x="430.225" y="435.145" width="41.1345" height="11.9664" transform="rotate(-60 430.225 435.145)" fill="#737474"/>
<rect id="Rectangle 9_5" x="452.288" y="396.931" width="41.1345" height="11.9664" transform="rotate(-60 452.288 396.931)" fill="#FFFF51"/>
<rect id="Rectangle 10_5" x="474.351" y="358.716" width="41.1345" height="11.9664" transform="rotate(-60 474.351 358.716)" fill="#737474"/>
<rect id="Rectangle 8_6" x="378.409" y="405.229" width="41.1345" height="11.9664" transform="rotate(-60 378.409 405.229)" fill="#737474"/>
<rect id="Rectangle 9_6" x="400.472" y="367.015" width="41.1345" height="11.9664" transform="rotate(-60 400.472 367.015)" fill="#FFFF51"/>
<rect id="Rectangle 10_6" x="422.535" y="328.801" width="41.1345" height="11.9664" transform="rotate(-60 422.535 328.801)" fill="#FFFF51"/>
<rect id="Rectangle 8_7" x="404.317" y="420.187" width="41.1345" height="11.9664" transform="rotate(-60 404.317 420.187)" fill="#737474"/>
<rect id="Rectangle 9_7" x="426.38" y="381.973" width="41.1345" height="11.9664" transform="rotate(-60 426.38 381.973)" fill="#FFFF51"/>
<rect id="Rectangle 10_7" x="448.443" y="343.758" width="41.1345" height="11.9664" transform="rotate(-60 448.443 343.758)" fill="#737474"/>
<rect id="Rectangle 8_8" x="352.501" y="390.271" width="41.1345" height="11.9664" transform="rotate(-60 352.501 390.271)" fill="#737474"/>
<rect id="Rectangle 9_8" x="374.564" y="352.057" width="41.1345" height="11.9664" transform="rotate(-60 374.564 352.057)" fill="#FFFF51"/>
<rect id="Rectangle 10_8" x="396.627" y="313.843" width="41.1345" height="11.9664" transform="rotate(-60 396.627 313.843)" fill="#737474"/>
<rect id="Rectangle 11_5" x="417.271" y="427.666" width="41.1345" height="11.9664" transform="rotate(-60 417.271 427.666)" fill="#737474"/>
<rect id="Rectangle 12_5" x="439.334" y="389.452" width="41.1345" height="11.9664" transform="rotate(-60 439.334 389.452)" fill="#FFFF51"/>
<rect id="Rectangle 13_5" x="461.397" y="351.238" width="41.1345" height="11.9664" transform="rotate(-60 461.397 351.238)" fill="#737474"/>
<rect id="Rectangle 11_6" x="365.455" y="397.75" width="41.1345" height="11.9664" transform="rotate(-60 365.455 397.75)" fill="#737474"/>
<rect id="Rectangle 12_6" x="387.518" y="359.536" width="41.1345" height="11.9664" transform="rotate(-60 387.518 359.536)" fill="#FFFF51"/>
<rect id="Rectangle 13_6" x="409.581" y="321.321" width="41.1345" height="11.9664" transform="rotate(-60 409.581 321.321)" fill="#737474"/>
<rect id="Rectangle 11_7" x="391.363" y="412.708" width="41.1345" height="11.9664" transform="rotate(-60 391.363 412.708)" fill="#737474"/>
<rect id="Rectangle 12_7" x="413.426" y="374.494" width="41.1345" height="11.9664" transform="rotate(-60 413.426 374.494)" fill="#FFFF51"/>
<rect id="Rectangle 13_7" x="435.489" y="336.28" width="41.1345" height="11.9664" transform="rotate(-60 435.489 336.28)" fill="#737474"/>
<rect id="Rectangle 11_8" x="339.547" y="382.792" width="41.1345" height="11.9664" transform="rotate(-60 339.547 382.792)" fill="#737474"/>
<rect id="Rectangle 12_8" x="361.61" y="344.578" width="41.1345" height="11.9664" transform="rotate(-60 361.61 344.578)" fill="#FFFF51"/>
<rect id="Rectangle 13_8" x="383.673" y="306.363" width="41.1345" height="11.9664" transform="rotate(-60 383.673 306.363)" fill="#737474"/>
</g>
<path id="meta-amarilla" d="M272.797 269.371L401.689 269.371L337.243 380.995L272.797 269.371Z" fill="#FFFF51"/>
<path id="salida-roja" d="M337.99 385.888L438.87 444.131L337.99 502.373L337.99 385.888Z" fill="#FF7360"/>
<path id="salida-verde" d="M202.53 385.888L101.65 444.131L202.53 502.373L202.53 385.888Z" fill="#9BE065"/>
<path id="saldia-rosada" d="M134.574 268.735L33.6434 210.462V327.007L134.574 268.735Z" fill="#DF43A1"/>
<path id="salida-amarilla" d="M404.547 268.735L505.477 210.462V327.007L404.547 268.735Z" fill="#FFFF51"/>
<path id="salida-purpura" d="M337.242 150.112L438.122 91.8693L337.242 33.6265L337.242 150.112Z" fill="#D06AFF"/>
<path id="salida-azul" d="M201.782 150.112L100.902 91.8693L201.782 33.6265L201.782 150.112Z" fill="#7052FF"/>
<g id="casillas-verdes">
<rect id="Rectangle 8_9" width="41.1345" height="11.9664" transform="matrix(-0.5 -0.866025 -0.866025 0.5 110.956 435.145)" fill="#737474"/>
<rect id="Rectangle 9_9" width="41.1345" height="11.9664" transform="matrix(-0.5 -0.866025 -0.866025 0.5 88.8928 396.931)" fill="#9BE065"/>
<rect id="Rectangle 10_9" width="41.1345" height="11.9664" transform="matrix(-0.5 -0.866025 -0.866025 0.5 66.8297 358.716)" fill="#737474"/>
<rect id="Rectangle 8_10" width="41.1345" height="11.9664" transform="matrix(-0.5 -0.866025 -0.866025 0.5 162.772 405.229)" fill="#737474"/>
<rect id="Rectangle 9_10" width="41.1345" height="11.9664" transform="matrix(-0.5 -0.866025 -0.866025 0.5 140.709 367.015)" fill="#9BE065"/>
<rect id="Rectangle 10_10" width="41.1345" height="11.9664" transform="matrix(-0.5 -0.866025 -0.866025 0.5 118.646 328.8)" fill="#9BE065"/>
<rect id="Rectangle 8_11" width="41.1345" height="11.9664" transform="matrix(-0.5 -0.866025 -0.866025 0.5 136.864 420.187)" fill="#737474"/>
<rect id="Rectangle 9_11" width="41.1345" height="11.9664" transform="matrix(-0.5 -0.866025 -0.866025 0.5 114.801 381.973)" fill="#9BE065"/>
<rect id="Rectangle 10_11" width="41.1345" height="11.9664" transform="matrix(-0.5 -0.866025 -0.866025 0.5 92.7378 343.758)" fill="#737474"/>
<rect id="Rectangle 8_12" width="41.1345" height="11.9664" transform="matrix(-0.5 -0.866025 -0.866025 0.5 188.68 390.271)" fill="#737474"/>
<rect id="Rectangle 9_12" width="41.1345" height="11.9664" transform="matrix(-0.5 -0.866025 -0.866025 0.5 166.617 352.057)" fill="#9BE065"/>
<rect id="Rectangle 10_12" width="41.1345" height="11.9664" transform="matrix(-0.5 -0.866025 -0.866025 0.5 144.554 313.843)" fill="#737474"/>
<rect id="Rectangle 11_9" width="41.1345" height="11.9664" transform="matrix(-0.5 -0.866025 -0.866025 0.5 123.91 427.666)" fill="#737474"/>
<rect id="Rectangle 12_9" width="41.1345" height="11.9664" transform="matrix(-0.5 -0.866025 -0.866025 0.5 101.847 389.452)" fill="#9BE065"/>
<rect id="Rectangle 13_9" width="41.1345" height="11.9664" transform="matrix(-0.5 -0.866025 -0.866025 0.5 79.7838 351.238)" fill="#737474"/>
<rect id="Rectangle 11_10" width="41.1345" height="11.9664" transform="matrix(-0.5 -0.866025 -0.866025 0.5 175.726 397.75)" fill="#737474"/>
<rect id="Rectangle 12_10" width="41.1345" height="11.9664" transform="matrix(-0.5 -0.866025 -0.866025 0.5 153.663 359.536)" fill="#9BE065"/>
<rect id="Rectangle 13_10" width="41.1345" height="11.9664" transform="matrix(-0.5 -0.866025 -0.866025 0.5 131.6 321.321)" fill="#737474"/>
<rect id="Rectangle 11_11" width="41.1345" height="11.9664" transform="matrix(-0.5 -0.866025 -0.866025 0.5 149.818 412.708)" fill="#737474"/>
<rect id="Rectangle 12_11" width="41.1345" height="11.9664" transform="matrix(-0.5 -0.866025 -0.866025 0.5 127.755 374.494)" fill="#9BE065"/>
<rect id="Rectangle 13_11" width="41.1345" height="11.9664" transform="matrix(-0.5 -0.866025 -0.866025 0.5 105.692 336.28)" fill="#737474"/>
<rect id="Rectangle 11_12" width="41.1345" height="11.9664" transform="matrix(-0.5 -0.866025 -0.866025 0.5 201.634 382.792)" fill="#737474"/>
<rect id="Rectangle 12_12" width="41.1345" height="11.9664" transform="matrix(-0.5 -0.866025 -0.866025 0.5 179.571 344.578)" fill="#9BE065"/>
<rect id="Rectangle 13_12" width="41.1345" height="11.9664" transform="matrix(-0.5 -0.866025 -0.866025 0.5 157.508 306.363)" fill="#737474"/>
</g>
<path id="meta-verde" d="M268.384 269.371L139.492 269.371L203.938 380.995L268.384 269.371Z" fill="#9BE065"/>
<g id="casillas-azul">
<rect id="Rectangle 8_13" width="41.1345" height="11.9664" transform="matrix(1 0 0 -1 204.925 46.3698)" fill="#737474"/>
<rect id="Rectangle 9_13" width="41.1345" height="11.9664" transform="matrix(1 0 0 -1 249.051 46.3698)" fill="#7052FF"/>
<rect id="Rectangle 10_13" width="41.1345" height="11.9664" transform="matrix(1 0 0 -1 293.177 46.3698)" fill="#737474"/>
<rect id="Rectangle 8_14" width="41.1345" height="11.9664" transform="matrix(1 0 0 -1 204.925 106.202)" fill="#7052FF"/>
<rect id="Rectangle 9_14" width="41.1345" height="11.9664" transform="matrix(1 0 0 -1 249.051 106.202)" fill="#7052FF"/>
<rect id="Rectangle 10_14" width="41.1345" height="11.9664" transform="matrix(1 0 0 -1 293.177 106.202)" fill="#737474"/>
<rect id="Rectangle 8_15" width="41.1345" height="11.9664" transform="matrix(1 0 0 -1 204.925 76.2858)" fill="#737474"/>
<rect id="Rectangle 9_15" width="41.1345" height="11.9664" transform="matrix(1 0 0 -1 249.051 76.2858)" fill="#7052FF"/>
<rect id="Rectangle 10_15" width="41.1345" height="11.9664" transform="matrix(1 0 0 -1 293.177 76.2858)" fill="#737474"/>
<rect id="Rectangle 8_16" width="41.1345" height="11.9664" transform="matrix(1 0 0 -1 204.925 136.118)" fill="#737474"/>
<rect id="Rectangle 9_16" width="41.1345" height="11.9664" transform="matrix(1 0 0 -1 249.051 136.118)" fill="#7052FF"/>
<rect id="Rectangle 10_16" width="41.1345" height="11.9664" transform="matrix(1 0 0 -1 293.177 136.118)" fill="#737474"/>
<rect id="Rectangle 11_13" width="41.1345" height="11.9664" transform="matrix(1 0 0 -1 204.925 61.3278)" fill="#737474"/>
<rect id="Rectangle 12_13" width="41.1345" height="11.9664" transform="matrix(1 0 0 -1 249.051 61.3278)" fill="#7052FF"/>
<rect id="Rectangle 13_13" width="41.1345" height="11.9664" transform="matrix(1 0 0 -1 293.177 61.3278)" fill="#737474"/>
<rect id="Rectangle 11_14" width="41.1345" height="11.9664" transform="matrix(1 0 0 -1 204.925 121.16)" fill="#737474"/>
<rect id="Rectangle 12_14" width="41.1345" height="11.9664" transform="matrix(1 0 0 -1 249.051 121.16)" fill="#7052FF"/>
<rect id="Rectangle 13_14" width="41.1345" height="11.9664" transform="matrix(1 0 0 -1 293.177 121.16)" fill="#737474"/>
<rect id="Rectangle 11_15" width="41.1345" height="11.9664" transform="matrix(1 0 0 -1 204.925 91.2438)" fill="#737474"/>
<rect id="Rectangle 12_15" width="41.1345" height="11.9664" transform="matrix(1 0 0 -1 249.051 91.2438)" fill="#7052FF"/>
<rect id="Rectangle 13_15" width="41.1345" height="11.9664" transform="matrix(1 0 0 -1 293.177 91.2438)" fill="#737474"/>
<rect id="Rectangle 11_16" width="41.1345" height="11.9664" transform="matrix(1 0 0 -1 204.925 151.076)" fill="#737474"/>
<rect id="Rectangle 12_16" width="41.1345" height="11.9664" transform="matrix(1 0 0 -1 249.051 151.076)" fill="#7052FF"/>
<rect id="Rectangle 13_16" width="41.1345" height="11.9664" transform="matrix(1 0 0 -1 293.177 151.076)" fill="#737474"/>
</g>
<path id="meta-azul" d="M269.56 265.845L334.267 153.769H204.853L269.56 265.845Z" fill="#7052FF"/>
<g id="casillas-moradas">
<rect id="Rectangle 8_17" width="41.1345" height="11.9664" transform="matrix(0.5 0.866025 0.866025 -0.5 429.477 101.099)" fill="#737474"/>
<rect id="Rectangle 9_17" width="41.1345" height="11.9664" transform="matrix(0.5 0.866025 0.866025 -0.5 451.54 139.314)" fill="#D06AFF"/>
<rect id="Rectangle 10_17" width="41.1345" height="11.9664" transform="matrix(0.5 0.866025 0.866025 -0.5 473.603 177.528)" fill="#737474"/>
<rect id="Rectangle 8_18" width="41.1345" height="11.9664" transform="matrix(0.5 0.866025 0.866025 -0.5 377.661 131.015)" fill="#D06AFF"/>
<rect id="Rectangle 9_18" width="41.1345" height="11.9664" transform="matrix(0.5 0.866025 0.866025 -0.5 399.724 169.23)" fill="#D06AFF"/>
<rect id="Rectangle 10_18" width="41.1345" height="11.9664" transform="matrix(0.5 0.866025 0.866025 -0.5 421.787 207.444)" fill="#737474"/>
<rect id="Rectangle 8_19" width="41.1345" height="11.9664" transform="matrix(0.5 0.866025 0.866025 -0.5 403.569 116.057)" fill="#737474"/>
<rect id="Rectangle 9_19" width="41.1345" height="11.9664" transform="matrix(0.5 0.866025 0.866025 -0.5 425.632 154.272)" fill="#D06AFF"/>
<rect id="Rectangle 10_19" width="41.1345" height="11.9664" transform="matrix(0.5 0.866025 0.866025 -0.5 447.695 192.486)" fill="#737474"/>
<rect id="Rectangle 8_20" width="41.1345" height="11.9664" transform="matrix(0.5 0.866025 0.866025 -0.5 351.753 145.973)" fill="#737474"/>
<rect id="Rectangle 9_20" width="41.1345" height="11.9664" transform="matrix(0.5 0.866025 0.866025 -0.5 373.816 184.188)" fill="#D06AFF"/>
<rect id="Rectangle 10_20" width="41.1345" height="11.9664" transform="matrix(0.5 0.866025 0.866025 -0.5 395.879 222.402)" fill="#737474"/>
<rect id="Rectangle 11_17" width="41.1345" height="11.9664" transform="matrix(0.5 0.866025 0.866025 -0.5 416.523 108.578)" fill="#737474"/>
<rect id="Rectangle 12_17" width="41.1345" height="11.9664" transform="matrix(0.5 0.866025 0.866025 -0.5 438.586 146.793)" fill="#D06AFF"/>
<rect id="Rectangle 13_17" width="41.1345" height="11.9664" transform="matrix(0.5 0.866025 0.866025 -0.5 460.649 185.007)" fill="#737474"/>
<rect id="Rectangle 11_18" width="41.1345" height="11.9664" transform="matrix(0.5 0.866025 0.866025 -0.5 364.707 138.494)" fill="#737474"/>
<rect id="Rectangle 12_18" width="41.1345" height="11.9664" transform="matrix(0.5 0.866025 0.866025 -0.5 386.77 176.709)" fill="#D06AFF"/>
<rect id="Rectangle 13_18" width="41.1345" height="11.9664" transform="matrix(0.5 0.866025 0.866025 -0.5 408.833 214.923)" fill="#737474"/>
<rect id="Rectangle 11_19" width="41.1345" height="11.9664" transform="matrix(0.5 0.866025 0.866025 -0.5 390.615 123.536)" fill="#737474"/>
<rect id="Rectangle 12_19" width="41.1345" height="11.9664" transform="matrix(0.5 0.866025 0.866025 -0.5 412.678 161.751)" fill="#D06AFF"/>
<rect id="Rectangle 13_19" width="41.1345" height="11.9664" transform="matrix(0.5 0.866025 0.866025 -0.5 434.741 199.965)" fill="#737474"/>
<rect id="Rectangle 11_20" width="41.1345" height="11.9664" transform="matrix(0.5 0.866025 0.866025 -0.5 338.799 153.452)" fill="#737474"/>
<rect id="Rectangle 12_20" width="41.1345" height="11.9664" transform="matrix(0.5 0.866025 0.866025 -0.5 360.862 191.667)" fill="#D06AFF"/>
<rect id="Rectangle 13_20" width="41.1345" height="11.9664" transform="matrix(0.5 0.866025 0.866025 -0.5 382.925 229.881)" fill="#737474"/>
</g>
<path id="meta-morada" d="M272.049 266.874L400.941 266.874L336.495 155.25L272.049 266.874Z" fill="#D06AFF"/>
<g id="casillas-rosada">
<rect id="Rectangle 8_21" x="110.208" y="101.099" width="41.1345" height="11.9664" transform="rotate(120 110.208 101.099)" fill="#737474"/>
<rect id="Rectangle 9_21" x="88.1449" y="139.314" width="41.1345" height="11.9664" transform="rotate(120 88.1449 139.314)" fill="#DF43A1"/>
<rect id="Rectangle 10_21" x="66.0818" y="177.528" width="41.1345" height="11.9664" transform="rotate(120 66.0818 177.528)" fill="#737474"/>
<rect id="Rectangle 8_22" x="162.024" y="131.015" width="41.1345" height="11.9664" transform="rotate(120 162.024 131.015)" fill="#737474"/>
<rect id="Rectangle 9_22" x="139.961" y="169.23" width="41.1345" height="11.9664" transform="rotate(120 139.961 169.23)" fill="#DF43A1"/>
<rect id="Rectangle 10_22" x="117.898" y="207.444" width="41.1345" height="11.9664" transform="rotate(120 117.898 207.444)" fill="#DF43A1"/>
<rect id="Rectangle 8_23" x="136.116" y="116.057" width="41.1345" height="11.9664" transform="rotate(120 136.116 116.057)" fill="#737474"/>
<rect id="Rectangle 9_23" x="114.053" y="154.272" width="41.1345" height="11.9664" transform="rotate(120 114.053 154.272)" fill="#DF43A1"/>
<rect id="Rectangle 10_23" x="91.9899" y="192.486" width="41.1345" height="11.9664" transform="rotate(120 91.9899 192.486)" fill="#737474"/>
<rect id="Rectangle 8_24" x="187.932" y="145.973" width="41.1345" height="11.9664" transform="rotate(120 187.932 145.973)" fill="#737474"/>
<rect id="Rectangle 9_24" x="165.869" y="184.188" width="41.1345" height="11.9664" transform="rotate(120 165.869 184.188)" fill="#DF43A1"/>
<rect id="Rectangle 10_24" x="143.806" y="222.402" width="41.1345" height="11.9664" transform="rotate(120 143.806 222.402)" fill="#737474"/>
<rect id="Rectangle 11_21" x="123.162" y="108.578" width="41.1345" height="11.9664" transform="rotate(120 123.162 108.578)" fill="#737474"/>
<rect id="Rectangle 12_21" x="101.099" y="146.793" width="41.1345" height="11.9664" transform="rotate(120 101.099 146.793)" fill="#DF43A1"/>
<rect id="Rectangle 13_21" x="79.0359" y="185.007" width="41.1345" height="11.9664" transform="rotate(120 79.0359 185.007)" fill="#737474"/>
<rect id="Rectangle 11_22" x="174.978" y="138.494" width="41.1345" height="11.9664" transform="rotate(120 174.978 138.494)" fill="#737474"/>
<rect id="Rectangle 12_22" x="152.915" y="176.709" width="41.1345" height="11.9664" transform="rotate(120 152.915 176.709)" fill="#DF43A1"/>
<rect id="Rectangle 13_22" x="130.852" y="214.923" width="41.1345" height="11.9664" transform="rotate(120 130.852 214.923)" fill="#737474"/>
<rect id="Rectangle 11_23" x="149.07" y="123.536" width="41.1345" height="11.9664" transform="rotate(120 149.07 123.536)" fill="#737474"/>
<rect id="Rectangle 12_23" x="127.007" y="161.751" width="41.1345" height="11.9664" transform="rotate(120 127.007 161.751)" fill="#DF43A1"/>
<rect id="Rectangle 13_23" x="104.944" y="199.965" width="41.1345" height="11.9664" transform="rotate(120 104.944 199.965)" fill="#737474"/>
<rect id="Rectangle 11_24" x="200.886" y="153.452" width="41.1345" height="11.9664" transform="rotate(120 200.886 153.452)" fill="#737474"/>
<rect id="Rectangle 12_24" x="178.823" y="191.667" width="41.1345" height="11.9664" transform="rotate(120 178.823 191.667)" fill="#DF43A1"/>
<rect id="Rectangle 13_24" x="156.76" y="229.881" width="41.1345" height="11.9664" transform="rotate(120 156.76 229.881)" fill="#737474"/>
</g>
<path id="meta-rosada" d="M267.636 266.874L138.744 266.874L203.19 155.25L267.636 266.874Z" fill="#DF43A1"/>
</g>
</svg>
